<svg width="28" height="28" viewBox="0 0 28 28" fill="none" xmlns="http://www.w3.org/2000/svg">
<g clip-path="url(#clip0_6_127)">
<path d="M28 14C28 6.26801 21.732 0 14 0C6.26801 0 0 6.26801 0 14C0 21.732 6.26801 28 14 28C21.732 28 28 21.732 28 14Z" fill="#FF5A5F"/>
<mask id="mask0_6_127" style="mask-type:luminance" maskUnits="userSpaceOnUse" x="6" y="6" width="16" height="16">
<path d="M6 6H22V22H6V6Z" fill="white"/>
</mask>
<g mask="url(#mask0_6_127)">
<path d="M14.0018 18.183C13.0998 17.052 12.5698 16.061 12.3928 15.212C12.2178 14.527 12.2868 13.98 12.5868 13.569C12.9048 13.095 13.3788 12.865 14.0008 12.865C14.6228 12.865 15.0968 13.095 15.4148 13.573C15.7118 13.98 15.7868 14.528 15.6048 15.217C15.4108 16.082 14.8818 17.073 13.9968 18.189L14.0018 18.183ZM20.4018 18.943C20.2788 19.774 19.7128 20.463 18.9358 20.799C17.4338 21.452 15.9468 20.41 14.6748 18.996C16.7788 16.362 17.1678 14.311 16.2648 12.984C15.7348 12.224 14.9758 11.854 14.0018 11.854C12.0388 11.854 10.9598 13.514 11.3838 15.442C11.6308 16.485 12.2848 17.671 13.3288 18.997C12.6748 19.72 12.0548 20.234 11.5068 20.552C11.0828 20.782 10.6768 20.924 10.2888 20.958C8.50276 21.224 7.10276 19.491 7.73876 17.705C7.82676 17.475 8.00176 17.051 8.30176 16.397L8.31876 16.362C9.29476 14.243 10.4798 11.835 11.8418 9.165L11.8768 9.077L12.2638 8.333C12.5638 7.785 12.6868 7.54 13.1638 7.238C13.3948 7.098 13.6778 7.028 13.9948 7.028C14.6308 7.028 15.1268 7.4 15.3388 7.699C15.4448 7.859 15.5688 8.071 15.7268 8.335L16.0988 9.061L16.1528 9.167C17.5128 11.836 18.6998 14.239 19.6728 16.363L19.6888 16.379L20.0448 17.193L20.2568 17.702C20.4188 18.111 20.4528 18.517 20.3988 18.941L20.4028 18.943H20.4018ZM21.2158 17.35C21.0918 16.961 20.8788 16.503 20.6158 15.954V15.934C19.4777 13.504 18.2982 11.0936 17.0778 8.704L17.0038 8.596C16.2128 6.974 15.6468 6 14.0018 6C12.3748 6 11.6848 7.13 10.9788 8.599L10.9248 8.705C9.70235 11.094 8.52348 13.5051 7.38876 15.937V15.972L7.01676 16.785C6.87676 17.121 6.80476 17.297 6.78676 17.35C5.88676 19.827 7.74176 22 9.98776 22C10.0058 22 10.0758 22 10.1648 21.982H10.4128C11.5788 21.84 12.7828 21.099 14.0028 19.771C15.2208 21.097 16.4248 21.84 17.5898 21.982H17.8378C17.9268 22 17.9978 22 18.0148 22C20.2608 22.002 22.1158 19.826 21.2158 17.35Z" fill="white"/>
</g>
</g>
<defs>
<clipPath id="clip0_6_127">
<rect width="28" height="28" fill="white"/>
</clipPath>
</defs>
</svg>
