<svg width="28" height="28" viewBox="0 0 28 28" fill="none" xmlns="http://www.w3.org/2000/svg">
<g clip-path="url(#clip0_6_110)">
<mask id="mask0_6_110" style="mask-type:luminance" maskUnits="userSpaceOnUse" x="0" y="0" width="28" height="28">
<path d="M28 14C28 6.26801 21.732 0 14 0C6.26801 0 0 6.26801 0 14C0 21.732 6.26801 28 14 28C21.732 28 28 21.732 28 14Z" fill="white"/>
</mask>
<g mask="url(#mask0_6_110)">
<path d="M28 14C28 6.26801 21.732 0 14 0C6.26801 0 0 6.26801 0 14C0 21.732 6.26801 28 14 28C21.732 28 28 21.732 28 14Z" fill="url(#paint0_linear_6_110)"/>
<path fill-rule="evenodd" clip-rule="evenodd" d="M11.1606 26.369C11.2053 22.5995 11.5841 19.2229 12.1643 16.7571C12.4749 15.4367 12.8345 14.4148 13.2108 13.7384C13.6185 13.0051 13.9116 12.9062 14 12.9062C14.0875 12.9062 14.3815 13.0051 14.7893 13.7375C15.1655 14.4147 15.5251 15.4367 15.8358 16.7571C16.4159 19.2229 16.7948 22.5995 16.8394 26.369C17.2839 26.2666 17.7205 26.1415 18.1466 25.9945C18.0819 22.2985 17.7021 18.9578 17.1141 16.457C16.828 15.2416 16.4859 14.196 16.0913 13.3971C17.402 14.0227 18.6174 15.232 19.6219 16.9391C20.7218 18.8099 21.5285 21.2214 21.8873 23.9391C22.2985 23.6119 22.6888 23.261 23.0554 22.8865C22.6284 20.3682 21.8286 18.1029 20.7533 16.2741C20.1828 15.3055 19.5265 14.4454 18.7968 13.7357C21.576 14.7349 23.9764 16.5725 25.6664 18.9945C25.8729 18.5133 26.0505 18.0171 26.1966 17.5079C23.352 13.9055 18.9464 11.5938 14 11.5938C9.05364 11.5938 4.64802 13.9055 1.80339 17.5079C1.94952 18.0171 2.12714 18.5141 2.33364 18.9954C4.02325 16.5731 6.42335 14.7353 9.20239 13.7357C8.47352 14.4454 7.81727 15.3055 7.24677 16.2732C6.17052 18.1029 5.37164 20.3682 4.94464 22.8865C5.31214 23.261 5.70239 23.6127 6.11277 23.9391C6.47152 21.2214 7.27827 18.8099 8.37902 16.9391C9.38264 15.2329 10.598 14.0227 11.9088 13.3971C11.5141 14.196 11.172 15.2416 10.8868 16.4561C10.2979 18.9586 9.91814 22.2985 9.85427 25.9945C10.2795 26.1415 10.7153 26.2666 11.1606 26.369ZM11.1589 27.7113C10.7155 27.6199 10.2769 27.5069 9.84464 27.3726C9.85952 31.4178 10.2515 35.0945 10.8859 37.7939C11.172 39.0084 11.5141 40.054 11.9088 40.8529C10.598 40.2272 9.38264 39.018 8.37814 37.3109C6.86439 34.7357 5.90627 31.136 5.90627 27.125C5.90627 26.5624 5.92552 26.0085 5.96139 25.4634C5.53231 25.162 5.12042 24.8369 4.72764 24.4895C4.64014 25.347 4.59377 26.2273 4.59377 27.125C4.59377 31.3285 5.59477 35.1663 7.24677 37.9759C7.81727 38.9445 8.47352 39.8046 9.20327 40.5142C3.71002 38.5455 -0.218731 33.2946 -0.218731 27.125C-0.218731 24.6628 0.406894 22.3475 1.50852 20.328C1.26369 19.8455 1.0472 19.3491 0.860144 18.8414C-0.706451 21.3199 -1.53584 24.1929 -1.53123 27.125C-1.53123 35.7026 5.42239 42.6562 14 42.6562C22.5776 42.6562 29.5313 35.7026 29.5313 27.125C29.5313 24.08 28.6545 21.2389 27.1399 18.8414C26.9526 19.3515 26.7356 19.8476 26.4924 20.328C27.6288 22.413 28.2225 24.7504 28.2188 27.125C28.2188 33.2938 24.29 38.5464 18.7968 40.5142C19.5265 39.8046 20.1828 38.9445 20.7533 37.9767C22.4044 35.1663 23.4063 31.3276 23.4063 27.125C23.4063 26.2273 23.3608 25.347 23.2733 24.4895C22.8795 24.836 22.4683 25.1615 22.0386 25.4634C22.0745 26.0085 22.0938 26.5624 22.0938 27.125C22.0938 31.136 21.1356 34.7358 19.6219 37.31C18.6174 39.018 17.402 40.2272 16.0913 40.8529C16.4859 40.054 16.828 39.0084 17.1133 37.7939C17.7485 35.0945 18.1405 31.4178 18.1563 27.3726C17.7258 27.5065 17.2874 27.6194 16.8411 27.7113C16.8061 31.549 16.4246 34.9904 15.8358 37.4929C15.5251 38.8132 15.1655 39.8352 14.7893 40.5116C14.3815 41.2449 14.0884 41.3438 14 41.3438C13.9125 41.3438 13.6185 41.2449 13.2108 40.5125C12.8345 39.8352 12.4749 38.8132 12.1643 37.4929C11.5754 34.9904 11.1948 31.549 11.1589 27.7113Z" fill="url(#paint1_radial_6_110)"/>
<path fill-rule="evenodd" clip-rule="evenodd" d="M17.4078 4.8588C17.4593 4.96158 17.4899 5.07349 17.4981 5.18813C17.5063 5.30278 17.4918 5.41791 17.4555 5.52696C17.4192 5.636 17.3617 5.73682 17.2864 5.82366C17.2111 5.9105 17.1195 5.98165 17.0167 6.03305L8.84331 9.14105C8.41106 9.35718 9.05856 9.5733 8.84331 9.14105C8.41106 9.35718 8.62718 8.7088 8.84331 9.14105L16.2344 4.46768C16.4419 4.36406 16.6821 4.34705 16.9021 4.42039C17.1221 4.49373 17.304 4.65142 17.4078 4.8588Z" fill="url(#paint2_linear_6_110)"/>
</g>
</g>
<defs>
<linearGradient id="paint0_linear_6_110" x1="14" y1="0" x2="14" y2="28.875" gradientUnits="userSpaceOnUse">
<stop stop-color="#00172C"/>
<stop offset="0.803" stop-color="#5900EB"/>
</linearGradient>
<radialGradient id="paint1_radial_6_110" cx="0" cy="0" r="1" gradientUnits="userSpaceOnUse" gradientTransform="translate(14 11.375) rotate(90) scale(31.2812 50.3125)">
<stop offset="0.14" stop-color="white"/>
<stop offset="0.514" stop-color="white" stop-opacity="0"/>
</radialGradient>
<linearGradient id="paint2_linear_6_110" x1="16.6256" y1="5.24993" x2="10.0631" y2="8.74993" gradientUnits="userSpaceOnUse">
<stop stop-color="#9969E8"/>
<stop offset="1" stop-color="#FFA0D2" stop-opacity="0.32"/>
</linearGradient>
<clipPath id="clip0_6_110">
<rect width="28" height="28" fill="white"/>
</clipPath>
</defs>
</svg>
