<svg width="28" height="28" viewBox="0 0 28 28" fill="none" xmlns="http://www.w3.org/2000/svg">
<g clip-path="url(#clip0_6_165)">
<mask id="mask0_6_165" style="mask-type:luminance" maskUnits="userSpaceOnUse" x="0" y="0" width="28" height="28">
<path d="M28 14C28 6.26801 21.732 0 14 0C6.26801 0 0 6.26801 0 14C0 21.732 6.26801 28 14 28C21.732 28 28 21.732 28 14Z" fill="white"/>
</mask>
<g mask="url(#mask0_6_165)">
<path d="M28 14C28 6.26801 21.732 0 14 0C6.26801 0 0 6.26801 0 14C0 21.732 6.26801 28 14 28C21.732 28 28 21.732 28 14Z" fill="white"/>
<mask id="mask1_6_165" style="mask-type:luminance" maskUnits="userSpaceOnUse" x="-2" y="-2" width="32" height="32">
<path d="M-2 -2H30V30H-2V-2Z" fill="white"/>
</mask>
<g mask="url(#mask1_6_165)">
<path d="M15.61 5.04012C15.0781 4.94949 14.5396 4.903 14 4.90112C13.207 4.90112 12.53 5.01412 12.39 5.04012C12.31 5.05412 12.279 4.97612 12.34 4.93012C12.396 4.88912 14 3.66812 14 3.66812L15.658 4.93012C15.721 4.97612 15.69 5.05412 15.61 5.04012ZM12.839 12.9661C12.839 12.9661 12.754 12.9961 12.731 13.0711C13.067 13.3291 13.299 13.9171 14 13.9171C14.701 13.9171 14.933 13.3291 15.268 13.0711C15.246 12.9961 15.161 12.9661 15.161 12.9661C15.161 12.9661 14.722 13.0701 14 13.0701C13.278 13.0701 12.839 12.9661 12.839 12.9661ZM14 11.9771C13.805 11.9771 13.763 11.9041 13.63 11.9041C13.503 11.9051 13.258 12.0061 13.204 12.0981C13.2071 12.1455 13.2266 12.1904 13.259 12.2251C13.543 12.2671 13.671 12.4251 14.001 12.4251C14.33 12.4251 14.457 12.2671 14.741 12.2251C14.7735 12.1904 14.7933 12.1456 14.797 12.0981C14.744 12.0061 14.497 11.9051 14.371 11.9041C14.238 11.9041 14.194 11.9771 14 11.9771ZM29.982 15.0041C29.962 15.3841 29.928 15.7641 29.882 16.1411C28.069 16.4411 27.422 14.8271 25.565 14.9081C25.676 15.3021 25.766 15.7031 25.835 16.1121C27.366 16.1121 27.983 17.5421 29.686 17.3321C29.596 17.7691 29.489 18.2011 29.364 18.6261C28.018 18.7581 27.544 17.4201 25.985 17.4571C25.998 17.6791 26.005 17.9031 26.005 18.1291L25.999 18.5031L29.025 19.6581C28.866 20.0861 28.69 20.5081 28.496 20.9221C27.586 20.8721 27.273 19.7051 25.889 19.7971C25.847 20.0951 25.795 20.3911 25.731 20.6841C26.933 20.6001 27.192 21.7061 28.053 21.7961C27.834 22.1961 27.598 22.5861 27.346 22.9661C26.836 22.6921 26.394 21.8681 25.426 21.8161C25.526 21.5101 25.613 21.1991 25.686 20.8841C24.828 20.8841 23.847 20.5501 23.025 19.8011C23.291 18.2821 20.935 16.7361 20.935 15.6241C20.935 14.4161 21.545 13.7481 21.545 12.1191C21.545 10.9111 20.959 9.60012 20.074 8.70412C19.9092 8.5361 19.7249 8.38839 19.525 8.26412C20.338 9.26912 20.963 10.4621 20.963 11.8441C20.963 13.3781 20.249 14.1871 20.249 15.6021C20.249 17.0171 22.319 18.2421 22.319 19.7011C22.319 20.2751 22.136 20.8361 21.531 21.9371C22.461 22.8651 23.671 23.3721 24.451 23.3721C24.705 23.3721 24.841 23.2941 24.932 23.0951C25.01 22.9231 25.084 22.7491 25.154 22.5741C25.995 22.6071 26.381 23.3711 26.846 23.6761C26.591 24.0184 26.3225 24.3503 26.041 24.6711C25.729 24.3261 25.31 23.7441 24.696 23.5821C24.586 23.7961 24.469 24.0061 24.347 24.2131C24.876 24.3571 25.237 24.8911 25.517 25.2421C25.216 25.5541 24.901 25.8551 24.575 26.1421C24.37 25.8241 24.052 25.4211 23.695 25.2031C23.5635 25.3811 23.4268 25.5552 23.285 25.7251C23.588 25.9301 23.855 26.3001 24.03 26.6011C23.653 26.9041 23.262 27.1911 22.858 27.4611C22.658 25.8351 20.439 24.7211 21.038 22.8351C20.841 23.1671 20.607 23.5831 20.607 24.0831C20.607 25.4491 22.061 26.5331 22.177 27.8891C21.875 28.0691 21.567 28.2391 21.253 28.3991C21.201 26.9091 19.661 25.2761 19.661 24.0521C19.661 22.6861 21.451 21.3141 21.451 19.7011C21.451 18.0871 19.385 16.9701 19.385 15.5531C19.385 14.1371 20.264 13.3221 20.264 11.5071C20.264 10.1771 19.632 8.83212 18.656 7.97212C18.4903 7.82298 18.3066 7.69531 18.109 7.59212C19.029 8.69612 19.562 9.69812 19.562 11.2171C19.562 12.9241 18.556 13.8721 18.556 15.5431C18.556 17.2141 20.583 18.1431 20.583 19.7021C20.583 21.2591 18.697 22.5721 18.697 24.1731C18.697 25.6291 20.359 27.0831 20.384 28.8101C20.019 28.9691 19.649 29.1131 19.274 29.2441C19.484 27.4991 17.614 25.6991 17.614 24.2741C17.614 22.7181 19.57 21.3801 19.57 19.7011C19.57 18.0211 17.581 17.2411 17.581 15.5171C17.581 13.7951 18.801 12.8411 18.801 10.9371C18.7972 10.2327 18.633 9.5384 18.321 8.90686C18.0089 8.27532 17.5572 7.72311 17 7.29212L16.932 7.24112C16.831 7.16612 16.748 7.25612 16.819 7.34512C17.577 8.29112 17.982 9.24812 17.982 10.6641C17.982 12.4051 16.58 13.8201 16.58 15.5071C16.58 17.4991 18.462 18.0671 18.462 19.7011C18.462 21.3351 16.444 22.6411 16.444 24.3751C16.444 25.9831 18.354 27.7681 18.026 29.6241C17.641 29.7241 17.252 29.8101 16.861 29.8801C17.219 27.5691 15.346 25.9101 15.346 24.3971C15.346 22.7601 17.436 21.3011 17.436 19.7021C17.436 18.1921 15.936 17.7001 15.738 16.1561C15.711 15.9461 15.542 15.7891 15.308 15.8281C15.004 15.8841 14.614 16.0841 14 16.0841C13.386 16.0841 12.996 15.8831 12.69 15.8281C12.458 15.7901 12.289 15.9461 12.262 16.1561C12.065 17.7001 10.564 18.1921 10.564 19.7011C10.564 21.3011 12.654 22.7601 12.654 24.3971C12.654 25.9091 10.781 27.5691 11.139 29.8801C10.7473 29.8092 10.3584 29.7238 9.973 29.6241C9.645 27.7681 11.556 25.9841 11.556 24.3751C11.556 22.6411 9.537 21.3351 9.537 19.7011C9.537 18.0681 11.42 17.4991 11.42 15.5071C11.42 13.8201 10.018 12.4061 10.018 10.6641C10.018 9.24812 10.423 8.29112 11.181 7.34512C11.251 7.25612 11.169 7.16612 11.068 7.24112L11 7.29212C10.4429 7.7227 9.9913 8.27457 9.6794 8.9058C9.36751 9.53704 9.20356 10.231 9.2 10.9351C9.2 12.8391 10.42 13.7931 10.42 15.5151C10.42 17.2391 8.43 18.0191 8.43 19.6991C8.43 21.3781 10.387 22.7161 10.387 24.2731C10.387 25.6971 8.516 27.4971 8.727 29.2421C8.352 29.1121 7.982 28.9661 7.617 28.8081C7.642 27.0801 9.303 25.6261 9.303 24.1711C9.303 22.5711 7.418 21.2571 7.418 19.6991C7.418 18.1411 9.444 17.2121 9.444 15.5401C9.444 13.8701 8.438 12.9221 8.438 11.2151C8.438 9.69512 8.971 8.69512 9.891 7.59012C9.69322 7.69296 9.5094 7.82066 9.344 7.97012C8.369 8.83012 7.737 10.1751 7.737 11.5051C7.737 13.3201 8.616 14.1351 8.616 15.5511C8.616 16.9681 6.551 18.0851 6.551 19.6991C6.551 21.3121 8.341 22.6841 8.341 24.0501C8.341 25.2751 6.799 26.9071 6.748 28.3981C6.434 28.2381 6.126 28.0681 5.824 27.8871C5.94 26.5301 7.394 25.4471 7.394 24.0811C7.394 23.5811 7.16 23.1651 6.964 22.8331C7.561 24.7191 5.342 25.8331 5.143 27.4581C4.73931 27.1895 4.34791 26.9029 3.97 26.5991C4.144 26.2981 4.411 25.9281 4.715 25.7221C4.57291 25.5528 4.43617 25.379 4.305 25.2011C3.948 25.4191 3.629 25.8221 3.425 26.1401C3.099 25.8521 2.785 25.5521 2.483 25.2401C2.763 24.8881 3.124 24.3551 3.653 24.2101C3.53076 24.0036 3.41471 23.7935 3.305 23.5801C2.691 23.7421 2.271 24.3231 1.959 24.6701C1.678 24.3481 1.409 24.0161 1.154 23.6741C1.62 23.3691 2.005 22.6041 2.846 22.5721C2.916 22.7471 2.991 22.9211 3.068 23.0931C3.159 23.2931 3.296 23.3691 3.548 23.3691C4.33 23.3691 5.54 22.8631 6.47 21.9351C5.865 20.8341 5.681 20.2731 5.681 19.6991C5.681 18.2401 7.751 17.0161 7.751 15.6001C7.751 14.1851 7.038 13.3751 7.038 11.8421C7.038 10.4601 7.662 9.26712 8.475 8.26112C8.275 8.38612 8.091 8.53412 7.927 8.70212C7.042 9.59912 6.455 10.9091 6.455 12.1171C6.455 13.7461 7.066 14.4141 7.066 15.6221C7.066 16.7341 4.709 18.2801 4.976 19.7991C4.153 20.5481 3.172 20.8821 2.314 20.8821C2.388 21.1961 2.474 21.5071 2.574 21.8151C1.607 21.8661 1.164 22.6901 0.654 22.9631C0.402 22.5831 0.166 22.1931 -0.053 21.7931C0.807 21.7041 1.067 20.5981 2.269 20.6821C2.206 20.3891 2.153 20.0921 2.111 19.7951C0.726 19.7031 0.413 20.8701 -0.497 20.9201C-0.691 20.5071 -0.867 20.0851 -1.026 19.6561L2.001 18.5021L1.995 18.1281C1.995 17.9021 2.001 17.6781 2.014 17.4561C0.455 17.4191 -0.0190001 18.7571 -1.366 18.6251C-1.49046 18.198 -1.59722 17.766 -1.686 17.3301C0.0149999 17.5411 0.632 16.1101 2.164 16.1111C2.232 15.7051 2.322 15.3031 2.434 14.9071C0.578 14.8261 -0.0699999 16.4401 -1.882 16.1401C-1.92915 15.7625 -1.9625 15.3832 -1.982 15.0031C0.123 15.2381 0.913 13.5071 2.83 13.7191C3.01 13.2631 3.22 12.8191 3.458 12.3901C1.054 11.9671 0.238 13.9771 -2 13.6701C-1.758 5.04212 5.313 -1.87988 14 -1.87988C22.688 -1.87988 29.758 5.04212 30 13.6721C27.762 13.9811 26.946 11.9711 24.542 12.3921C24.778 12.8191 24.989 13.2621 25.17 13.7221C27.086 13.5091 27.876 15.2411 29.982 15.0051V15.0041ZM7.12 8.29112C5.941 7.80912 4.514 7.92112 3.296 8.70312C3.106 7.56912 2.492 6.56212 1.616 5.95412C1.495 5.87012 1.369 5.95012 1.38 6.09012C1.565 8.48612 0.165 10.5661 -1.558 12.3941C0.217 12.9281 1.728 10.6421 4.031 11.4401C4.85802 10.2089 5.90524 9.14105 7.12 8.29012V8.29112ZM14 6.84012C12.514 6.84012 11.27 7.68112 10.944 8.76712C10.918 8.85012 10.952 8.90412 11.048 8.86112C11.3327 8.73863 11.6401 8.67796 11.95 8.68312C12.556 8.68312 13.09 8.90612 13.406 9.29312C13.546 9.75312 13.558 10.4211 13.4 10.8031C13.15 10.7461 13.06 10.5531 12.817 10.5531C12.573 10.5531 12.384 10.7241 11.97 10.7241C11.557 10.7241 11.51 10.5291 11.237 10.5291C10.917 10.5291 10.859 10.8591 10.859 11.2291C10.859 12.8851 12.381 15.1631 13.999 15.1631C15.618 15.1631 17.139 12.8851 17.139 11.2301C17.139 10.8581 17.063 10.5401 16.729 10.4971C16.563 10.6171 16.409 10.7241 16.029 10.7241C15.615 10.7241 15.501 10.5541 15.258 10.5541C14.964 10.5541 14.993 11.1741 14.644 11.2081C14.411 10.6481 14.4 9.93212 14.594 9.29312C14.91 8.90612 15.444 8.68312 16.049 8.68312C16.379 8.68312 16.686 8.74112 16.95 8.86112C17.047 8.90412 17.08 8.85012 17.055 8.76712C16.73 7.68112 15.485 6.84012 14 6.84012ZM16.366 9.21612C16.009 9.21612 15.592 9.32612 15.329 9.61812C15.2998 9.70885 15.3037 9.80699 15.34 9.89512C15.986 9.67312 16.556 9.66512 16.831 9.97312C16.978 9.83912 17.025 9.71912 17.025 9.58012C17.025 9.36512 16.807 9.21612 16.366 9.21612ZM11.169 9.97312C11.48 9.66112 12.137 9.67412 12.819 9.92612C12.849 9.58612 12.241 9.21612 11.634 9.21612C11.194 9.21612 10.974 9.36412 10.974 9.58012C10.974 9.72012 11.023 9.84012 11.169 9.97312ZM21.409 4.36912C20.236 4.45212 19.217 4.85512 18.392 5.52612C18.742 4.53412 19.187 3.66612 19.75 2.82412C18.256 2.98312 17.008 3.52912 16.096 4.46312L15.383 2.59312L16.966 1.19512L14.846 1.04512L14 -0.925883L13.153 1.04612L11.033 1.19612L12.617 2.59412L11.904 4.46412C10.992 3.53012 9.743 2.98412 8.25 2.82512C8.81538 3.66442 9.2714 4.57241 9.607 5.52712C8.783 4.85612 7.764 4.45312 6.59 4.37012C7.294 5.27412 7.917 6.23912 8.38 7.27612C8.432 7.39312 8.544 7.43112 8.665 7.37112C10.3221 6.54785 12.1477 6.12063 13.998 6.12312C15.914 6.12312 17.725 6.57312 19.333 7.37112C19.453 7.43112 19.566 7.39312 19.618 7.27612C20.08 6.23912 20.704 5.27412 21.408 4.37012L21.409 4.36912ZM23.971 11.4391C26.271 10.6421 27.783 12.9271 29.558 12.3941C27.836 10.5661 26.436 8.48612 26.621 6.09012C26.632 5.95012 26.506 5.87012 26.385 5.95412C25.509 6.56212 24.894 7.56912 24.705 8.70312C23.486 7.92012 22.06 7.80912 20.881 8.29112C22.0959 9.1418 23.1434 10.2083 23.971 11.4391Z" fill="#006241"/>
</g>
</g>
</g>
<defs>
<clipPath id="clip0_6_165">
<rect width="28" height="28" fill="white"/>
</clipPath>
</defs>
</svg>
